<svg width="790" height="730" version="1.1" viewBox="0 0 209.02 193.15" xmlns="http://www.w3.org/2000/svg">
 <path transform="scale(.26458)" d="m414.47 0v0.0019531c-8.2624 0-14.537 17.352-14.482 40.051 0.03855 14.519 0.75806 17.699 6.8867 30.51 3.7634 7.8664 8.7395 18.592 11.064 23.836 6.0334 13.61 9.4025 19.468 18.66 32.42 11.471 16.048 13.844 21.162 16.389 35.285 3.7515 20.819 4.2931 22.543 8.1035 25.926 7.3546 6.5286 2.4915 8.6791-8.6602 3.8301-3.3692-1.465-13.12-5.4316-21.674-8.8047-22.951-9.0501-35.591-15.218-48.283-23.576-22.028-14.505-29.328-16.353-64.826-16.404-17.298-0.01923-37.858-0.91707-45.688-1.9805-7.8294-1.0646-24.293-2.7545-36.59-3.7598-12.296-1.0049-35.043-3.1126-50.547-4.6855-15.504-1.5728-36.677-3.7194-47.057-4.7656-10.38-1.0453-20.884-2.3724-23.336-2.9453-2.4515-0.57368-11.894-1.884-20.982-2.9141-9.0887-1.0299-24.83-3.0902-34.988-4.5859-10.158-1.4958-22.409-3.3035-27.221-4.0098-7.2805-1.0684-9.651-0.58143-14.117 2.875l-5.3652 4.1484 4.2285 6.0488c9.8015 14.009 23.546 21.562 42.809 23.537 10.635 1.0896 11.128 1.3591 7.373 3.9394-2.2123 1.5208-8.5693 3.4475-14.127 4.2969-27.336 4.1756-44.094 7.4913-47.809 9.4414-6.5351 3.4308-5.3735 11.96 2.5469 18.781 9.5976 8.266 18.694 10.634 35.982 9.3711 8.1012-0.59094 17.169-0.6011 20.15-0.01563l5.416 1.0566-5.416 2.7754c-5.5645 2.8499-18.538 7.2617-37.676 12.822-19.069 5.5405-23.837 11.761-14.898 19.438 7.2869 6.2578 13.44 8.4278 30.668 10.824 9.0629 1.2609 16.326 3.0956 16.137 4.0781-0.18841 0.98178-4.5021 3.3838-9.584 5.3418-10.975 4.2288-16.318 9.6957-16.318 16.674 0 8.4681 8.9874 13.744 34.512 20.273 1.4146 0.3617 2.4238 3.697 2.4238 7.9785 0 5.1736 1.3091 8.5499 4.4023 11.4 5.2616 4.8486 24.762 10.196 35.078 9.6191 5.9384-0.33369 8.2359 0.59123 11.664 4.6758 4.9746 5.9265 12.487 9.0234 21.906 9.0234 4.3532 0 9.5107 2.0007 14.746 5.7207 4.9811 3.5397 10.442 5.7188 14.318 5.7188 4.8399 0 7.6776 1.6301 12.475 7.1543 8.088 9.3146 15.979 12.012 26.328 9.0117 9.1468-2.6521 11.819-2.0079 17.777 4.2988 6.1853 6.5464 18.725 9.897 27.992 7.4707 6.5834-1.7229 7.9269-1.4052 13.498 3.1934 5.6615 4.6731 7.6234 5.1074 23.051 5.1328 9.5076 0.01512 18.898 1.0485 21.531 2.377 4.7509 2.3967 5.8236 3.8121 10.305 13.629 2.4861 5.4464 3.444 6.2099 13.215 10.465 9.0582 3.9447 35.659 25.892 41.812 34.5 5.3569 7.4949 7.3161 8.7614 15.68 10.137 12.054 1.9822 15.746 5.2939 19.41 17.398 4.3344 14.319 17.604 27.023 40.01 38.291 10.3 5.1799 11.424 5.3592 18.73 2.9941 11.808-3.8224 12.805-2.3572 6.3594 9.3906-3.1649 5.7687-5.7904 13.228-5.832 16.574-0.11754 9.6948-9.4851 32.813-19.156 47.312-8.2472 12.365-27.935 33.103-48.965 51.58-9.6437 8.4731-26.611 27.51-31.723 35.594-5.427 8.5818-4.1039 18.272 4.0762 29.854 3.9771 5.631 9.4167 11.371 12.09 12.754 14.534 7.5178 27.823 12.298 34.391 12.375 4.0759 0.04007 10.036 1.2659 13.244 2.707 8.4679 3.8036 12.586 3.444 22.068-1.8711 4.6533-2.6094 10.724-4.7344 13.498-4.7344 2.7738 0 8.3609-2.2584 12.414-5.0137l7.373-5.0137 3.7012 4.4961c3.1585 3.8261 4.3897 4.1774 8.2969 2.3867 34.298-15.719 53.943-29.247 81.324-55.977 34.916-34.085 40.104-42.572 37.99-62.186l-1.2578-11.648 8.5606-3.9492c9.0788-4.1859 11.959-7.6191 17.939-21.379 2.0516-4.7196 5.6898-11.177 8.084-14.354 2.394-3.1764 6.0056-9.392 8.0215-13.809 2.179-4.7738 11.129-15.197 22.068-25.695 10.121-9.713 22.01-23.035 26.43-29.605 8.3641-12.434 16.074-30.158 16.074-36.957 0-7.971 6.283-27.54 10.629-33.098 8.7746-11.222 22.872-23.834 26.986-24.152 2.3-0.17348 8.0118-0.09641 12.697 0.17383 5.3515 0.31786 9.0962-0.41473 10.07-1.9609 2.2054-3.5001-4.1402-11.473-14.086-17.697-5.2204-3.2673-9.7508-8.1332-12.008-12.883-1.994-4.1967-5.4963-9.3508-7.7793-11.459-10.009-9.2424-27.72-11.781-43.832-6.2774-13.061 4.4614-15.885 6.2181-26.773 16.594-7.9079 7.5357-11.878 9.8609-18.469 10.812-9.3765 1.3534-15.201 0.66938-15.201-1.7812 0-1.8866-9.5666-22.492-24.352-52.445-5.6949-11.537-10.961-23.543-11.693-26.689-0.93407-4.0168-11.042-15.093-33.943-37.186-18.072-17.434-39.145-39.971-47.26-50.537-18.927-24.644-22.001-27.914-32.139-34.162-4.6413-2.8602-12.952-9.7026-18.469-15.209-47.362-47.277-73.995-95.857-67.553-123.22 3.2654-13.87 2.749-20.98-1.5312-20.98z" fill="#fff" stroke-width="1.9255"/>
</svg>
